<?xml version="1.0" encoding="UTF-8" standalone="no"?>
<svg width="164px" height="164px" viewBox="0 0 164 164" version="1.1" xmlns="http://www.w3.org/2000/svg" xmlns:xlink="http://www.w3.org/1999/xlink">
    <!-- Generator: Sketch 50.2 (55047) - http://www.bohemiancoding.com/sketch -->
    <title>romanclature</title>
    <desc>Created with Sketch.</desc>
    <defs></defs>
    <g id="romanclature" stroke="none" stroke-width="1" fill="none" fill-rule="evenodd">
        <g id="noun_Book_220015" transform="translate(14.000000, 22.000000)" fill="#D0280A" fill-rule="nonzero">
            <g id="Group">
                <path d="M52.166,48.126 L36.332,48.126 C34.146,48.126 32.374,49.898 32.374,52.084 C32.374,54.27 34.146,56.042 36.332,56.042 L52.166,56.042 C54.352,56.042 56.124,54.27 56.124,52.084 C56.126,49.898 54.352,48.126 52.166,48.126 Z" id="Shape"></path>
                <path d="M52.166,63.958 L36.332,63.958 C34.146,63.958 32.374,65.73 32.374,67.916 C32.374,70.102 34.146,71.874 36.332,71.874 L52.166,71.874 C54.352,71.874 56.124,70.102 56.124,67.916 C56.124,65.73 54.352,63.958 52.166,63.958 Z" id="Shape"></path>
                <path d="M52.166,79.792 L36.332,79.792 C34.146,79.792 32.374,81.564 32.374,83.75 C32.374,85.936 34.146,87.708 36.332,87.708 L52.166,87.708 C54.352,87.708 56.124,85.936 56.124,83.75 C56.126,81.564 54.352,79.792 52.166,79.792 Z" id="Shape"></path>
                <path d="M131.334,48.126 L119.46,48.126 L119.46,36.25 C119.46,34.064 117.688,32.292 115.502,32.292 L103.626,32.292 L103.626,4.584 C103.626,2.398 101.854,0.626 99.668,0.626 C83.504,0.626 69.862,16.182 65.506,37.492 C61.986,34.274 57.314,32.292 52.168,32.292 L20.5,32.292 C18.314,32.292 16.542,34.064 16.542,36.25 L16.542,48.126 L4.666,48.126 C2.48,48.126 0.708,49.898 0.708,52.084 L0.708,115.418 C0.708,117.604 2.48,119.376 4.666,119.376 L52.166,119.376 C54.352,119.376 56.124,117.604 56.124,115.418 C56.124,113.232 54.352,111.46 52.166,111.46 L8.626,111.46 L8.626,56.042 L16.542,56.042 L16.542,99.584 C16.542,101.77 18.314,103.542 20.5,103.542 L52.166,103.542 C58.724,103.542 64.04,108.858 64.04,115.418 C64.04,117.604 65.812,119.376 67.998,119.376 C70.184,119.376 71.956,117.604 71.956,115.418 C71.956,108.86 77.272,103.542 83.83,103.542 L115.5,103.542 C117.686,103.542 119.458,101.77 119.458,99.584 L119.458,56.042 L127.374,56.042 L127.374,111.458 L83.834,111.458 C81.648,111.458 79.876,113.23 79.876,115.416 C79.876,117.602 81.648,119.374 83.834,119.374 L131.334,119.374 C133.52,119.374 135.292,117.602 135.292,115.416 L135.292,52.084 C135.292,49.898 133.52,48.126 131.334,48.126 Z M95.708,8.992 L95.708,64.282 C86.134,65.812 77.708,72.818 71.958,83.086 L71.958,52.084 C71.958,30.148 82.282,12.01 95.708,8.992 Z M52.166,95.624 L24.458,95.624 L24.458,40.208 L52.166,40.208 C58.724,40.208 64.04,45.524 64.04,52.084 L64.04,99.61 C60.732,97.12 56.628,95.624 52.166,95.624 Z M83.834,95.624 C80.35,95.624 77.082,96.53 74.24,98.11 C75.626,93.088 77.594,88.556 80.014,84.728 C80.452,86.438 81.99,87.706 83.836,87.706 L99.67,87.706 C101.856,87.706 103.628,85.934 103.628,83.748 C103.628,81.562 101.856,79.79 99.67,79.79 L83.836,79.79 C83.802,79.79 83.772,79.798 83.738,79.8 C88.246,74.812 93.736,71.874 99.668,71.874 C101.854,71.874 103.626,70.102 103.626,67.916 L103.626,40.208 L111.542,40.208 L111.542,95.624 L83.834,95.624 Z" id="Shape"></path>
            </g>
        </g>
    </g>
</svg>